<mxfile host="app.diagrams.net" agent="Mozilla/5.0 (Windows NT 10.0; Win64; x64) AppleWebKit/537.36 (KHTML, like Gecko) Chrome/141.0.0.0 Safari/537.36 Edg/141.0.0.0" version="28.2.8">
  <diagram name="Seite-1" id="suYSlVGU4uO9lBGT226z">
    <mxGraphModel dx="1752" dy="1118" grid="1" gridSize="10" guides="1" tooltips="1" connect="1" arrows="1" fold="1" page="1" pageScale="1" pageWidth="827" pageHeight="1169" math="0" shadow="0">
      <root>
        <mxCell id="0" />
        <mxCell id="1" parent="0" />
        <mxCell id="cfGg6-_ZR1HL-1C7IQdE-1" value="P2P-Blockchain-Netzwerk" style="rounded=0;whiteSpace=wrap;html=1;" vertex="1" parent="1">
          <mxGeometry x="319" y="440" width="201" height="120" as="geometry" />
        </mxCell>
        <mxCell id="cfGg6-_ZR1HL-1C7IQdE-2" value="REST-API" style="rounded=1;whiteSpace=wrap;html=1;" vertex="1" parent="1">
          <mxGeometry x="400" y="340" width="120" height="60" as="geometry" />
        </mxCell>
        <mxCell id="cfGg6-_ZR1HL-1C7IQdE-4" value="gRPC" style="endArrow=classic;startArrow=classic;html=1;rounded=0;" edge="1" parent="1" source="cfGg6-_ZR1HL-1C7IQdE-1" target="cfGg6-_ZR1HL-1C7IQdE-2">
          <mxGeometry width="50" height="50" relative="1" as="geometry">
            <mxPoint x="540" y="500" as="sourcePoint" />
            <mxPoint x="590" y="450" as="targetPoint" />
          </mxGeometry>
        </mxCell>
        <mxCell id="cfGg6-_ZR1HL-1C7IQdE-5" value="Externer Miner" style="rounded=1;whiteSpace=wrap;html=1;" vertex="1" parent="1">
          <mxGeometry x="160" y="340" width="120" height="60" as="geometry" />
        </mxCell>
        <mxCell id="cfGg6-_ZR1HL-1C7IQdE-6" value="gRPC/Internet" style="endArrow=classic;startArrow=classic;html=1;rounded=0;" edge="1" parent="1" source="cfGg6-_ZR1HL-1C7IQdE-5" target="cfGg6-_ZR1HL-1C7IQdE-1">
          <mxGeometry width="50" height="50" relative="1" as="geometry">
            <mxPoint x="500" y="500" as="sourcePoint" />
            <mxPoint x="550" y="450" as="targetPoint" />
          </mxGeometry>
        </mxCell>
        <mxCell id="cfGg6-_ZR1HL-1C7IQdE-7" value="Externer HÃ¤ndler" style="rounded=1;whiteSpace=wrap;html=1;" vertex="1" parent="1">
          <mxGeometry x="110" y="500" width="120" height="60" as="geometry" />
        </mxCell>
        <mxCell id="cfGg6-_ZR1HL-1C7IQdE-9" value="gRPC/Internet" style="endArrow=classic;startArrow=classic;html=1;rounded=0;" edge="1" parent="1" source="cfGg6-_ZR1HL-1C7IQdE-7" target="cfGg6-_ZR1HL-1C7IQdE-1">
          <mxGeometry width="50" height="50" relative="1" as="geometry">
            <mxPoint x="520" y="550" as="sourcePoint" />
            <mxPoint x="570" y="500" as="targetPoint" />
          </mxGeometry>
        </mxCell>
        <mxCell id="cfGg6-_ZR1HL-1C7IQdE-10" value="" style="whiteSpace=wrap;html=1;aspect=fixed;" vertex="1" parent="1">
          <mxGeometry x="560" y="340" width="220" height="220" as="geometry" />
        </mxCell>
        <mxCell id="cfGg6-_ZR1HL-1C7IQdE-11" value="Legende" style="text;html=1;whiteSpace=wrap;strokeColor=none;fillColor=none;align=center;verticalAlign=middle;rounded=0;" vertex="1" parent="1">
          <mxGeometry x="560" y="340" width="60" height="30" as="geometry" />
        </mxCell>
        <mxCell id="cfGg6-_ZR1HL-1C7IQdE-12" value="" style="endArrow=classic;startArrow=classic;html=1;rounded=0;" edge="1" parent="1">
          <mxGeometry width="50" height="50" relative="1" as="geometry">
            <mxPoint x="570" y="375" as="sourcePoint" />
            <mxPoint x="630" y="375" as="targetPoint" />
          </mxGeometry>
        </mxCell>
        <mxCell id="cfGg6-_ZR1HL-1C7IQdE-13" value="Datenfluss" style="text;html=1;whiteSpace=wrap;strokeColor=none;fillColor=none;align=left;verticalAlign=middle;rounded=0;" vertex="1" parent="1">
          <mxGeometry x="640" y="360" width="130" height="30" as="geometry" />
        </mxCell>
        <mxCell id="cfGg6-_ZR1HL-1C7IQdE-14" value="" style="rounded=1;whiteSpace=wrap;html=1;" vertex="1" parent="1">
          <mxGeometry x="570" y="390" width="60" height="20" as="geometry" />
        </mxCell>
        <mxCell id="cfGg6-_ZR1HL-1C7IQdE-15" value="Externes System" style="text;html=1;whiteSpace=wrap;strokeColor=none;fillColor=none;align=left;verticalAlign=middle;rounded=0;" vertex="1" parent="1">
          <mxGeometry x="640" y="385" width="130" height="30" as="geometry" />
        </mxCell>
        <mxCell id="cfGg6-_ZR1HL-1C7IQdE-16" value="" style="rounded=0;whiteSpace=wrap;html=1;" vertex="1" parent="1">
          <mxGeometry x="570" y="420" width="60" height="20" as="geometry" />
        </mxCell>
        <mxCell id="cfGg6-_ZR1HL-1C7IQdE-17" value="System (Blackbox)" style="text;html=1;whiteSpace=wrap;strokeColor=none;fillColor=none;align=left;verticalAlign=middle;rounded=0;" vertex="1" parent="1">
          <mxGeometry x="640" y="415" width="130" height="30" as="geometry" />
        </mxCell>
      </root>
    </mxGraphModel>
  </diagram>
</mxfile>
